# xmcd CD database file
#
# Track frame offsets:
#	150
#	14187
#	24392
#	37755
#	46867
#	58652
#	71167
#	85707
#	97690
#	110300
#	121165
#	134362
#	147350
#	157277
#	168095
#	181297
#	193697
#	204120
#	216235
#	230782
#	243005
#	254490
#	265672
#	281905
#	292525
#	305132
#
# Disc length: 4249 seconds
#
# Revision: 0
# Processed by: cddbd v1.5.2PL0 Copyright (c) Steve Scherf et al.
# Submitted via: CDex 1.70beta2
#
DISCID=7010971a
DTITLE=Jones Classic Country - Jones Classic Country CCC-602
DYEAR=0000
DGENRE=Country
TTITLE0=Lefty Frizzell/Saginaw Michigan
TTITLE1=Margaret Whiting and Jimmy Wakely/Slippin' Around
TTITLE2=Marty Robbins/Devil Woman
TTITLE3=Webb Pierce/I'm Tired
TTITLE4=Eddy Arnold/Cattle Call
TTITLE5=Loretta Lynn/Blue Kentucky Girl
TTITLE6=Red Simpson/I'm A Truck
TTITLE7=Merle Haggard/Carolyn
TTITLE8=Patsy Cline/Crazy
TTITLE9=Leroy Van Dyke/If A Woman Answers
TTITLE10=Browns/Three Bells
TTITLE11=Ernest Tubb/Walking THe Floor Over You
TTITLE12=George Jones/Race Is On
TTITLE13=Buck Owens/Act Naturally
TTITLE14=Johnny Horton/North To Alaska
TTITLE15=Del Reeves/Girl On The Billboard
TTITLE16=Jim Reeves/Is It Really Over?
TTITLE17=Henson Corgill/Skip A Rope
TTITLE18=Don Williams/Come Early Morning
TTITLE19=Hank Williams Jr/Cajun Baby
TTITLE20=Stonewall Jackson/Waterloo
TTITLE21=Buck Owens/Together Again
TTITLE22=Marty Robbins/My Woman, My Woman, My Wife
TTITLE23=George Jones/Walk Through This World With Me
TTITLE24=Hank Williams Sr/Half As Much
TTITLE25=Jim Ed Brown/Morning
EXTD=YEAR: 0000
EXTT0=
EXTT1=
EXTT2=
EXTT3=
EXTT4=
EXTT5=
EXTT6=
EXTT7=
EXTT8=
EXTT9=
EXTT10=
EXTT11=
EXTT12=
EXTT13=
EXTT14=
EXTT15=
EXTT16=
EXTT17=
EXTT18=
EXTT19=
EXTT20=
EXTT21=
EXTT22=
EXTT23=
EXTT24=
EXTT25=
PLAYORDER=
